<svg xmlns="http://www.w3.org/2000/svg" width="18" height="15" viewBox="0 0 18 15">
  <g id="Group_420" data-name="Group 420" transform="translate(-260 -328)">
    <rect id="Rectangle_534" data-name="Rectangle 534" width="18" height="15" rx="2" transform="translate(260 328)" fill="#22aabe"/>
    <path id="Icon_awesome-phone" data-name="Icon awesome-phone" d="M8.9.443,7.026.01a.436.436,0,0,0-.5.251L5.664,2.282a.432.432,0,0,0,.125.505l1.094.9a6.688,6.688,0,0,1-3.2,3.2l-.9-1.094a.433.433,0,0,0-.505-.125L.263,6.528a.438.438,0,0,0-.253.5L.443,8.9a.433.433,0,0,0,.422.336A8.372,8.372,0,0,0,9.239.866.433.433,0,0,0,8.9.443Z" transform="translate(264.381 331.001)" fill="#fff"/>
  </g>
</svg>
