<svg xmlns="http://www.w3.org/2000/svg" width="23.146" height="23.141" viewBox="0 0 23.146 23.141">
  <path id="Icon_awesome-instagram" data-name="Icon awesome-instagram" d="M11.57,7.875A5.933,5.933,0,1,0,17.5,13.808,5.924,5.924,0,0,0,11.57,7.875Zm0,9.79a3.857,3.857,0,1,1,3.857-3.857,3.864,3.864,0,0,1-3.857,3.857ZM19.13,7.632a1.384,1.384,0,1,1-1.384-1.384A1.381,1.381,0,0,1,19.13,7.632Zm3.93,1.4A6.848,6.848,0,0,0,21.19,4.188a6.893,6.893,0,0,0-4.849-1.869c-1.911-.108-7.637-.108-9.548,0A6.884,6.884,0,0,0,1.945,4.183,6.871,6.871,0,0,0,.076,9.032c-.108,1.911-.108,7.637,0,9.547a6.848,6.848,0,0,0,1.869,4.849A6.9,6.9,0,0,0,6.794,25.3c1.911.108,7.637.108,9.548,0a6.848,6.848,0,0,0,4.849-1.869,6.893,6.893,0,0,0,1.869-4.849c.108-1.911.108-7.632,0-9.542ZM20.591,20.629a3.905,3.905,0,0,1-2.2,2.2c-1.523.6-5.138.465-6.821.465s-5.3.134-6.821-.465a3.905,3.905,0,0,1-2.2-2.2c-.6-1.523-.465-5.138-.465-6.821s-.134-5.3.465-6.821a3.905,3.905,0,0,1,2.2-2.2c1.523-.6,5.138-.465,6.821-.465s5.3-.134,6.821.465a3.905,3.905,0,0,1,2.2,2.2c.6,1.523.465,5.138.465,6.821S21.2,19.111,20.591,20.629Z" transform="translate(0.005 -2.238)" fill="#fff"/>
</svg>
