<?xml version="1.0" encoding="utf-8"?>
<!-- Generator: Adobe Illustrator 23.0.3, SVG Export Plug-In . SVG Version: 6.00 Build 0)  -->
<svg version="1.1" id="Layer_1" xmlns="http://www.w3.org/2000/svg" xmlns:xlink="http://www.w3.org/1999/xlink" x="0px" y="0px"
	 viewBox="0 0 1903 960" style="enable-background:new 0 0 1903 960;" xml:space="preserve">
<style type="text/css">
	.st0{fill:#020202;stroke:#000000;stroke-miterlimit:10;}
</style>
<polygon class="st0" points="319.4,533.4 517.1,513.2 492,511.2 914.9,467.9 934.7,469.2 938.9,467.9 944,469 1095.1,480 1069,390 
	919.1,375.5 913.2,375.5 909.6,377.3 582.8,428.9 "/>
<polygon class="st0" points="319.4,533.4 517.1,513.2 492,511.2 914.9,467.9 934.7,469.2 938.9,467.9 944,469 1095.1,480 
	1118.4,557.4 968.2,557.4 962.7,555.4 958.9,558.6 936.2,558.6 913.8,558.6 306,592.1 306,586.8 319.4,586.3 "/>
<polygon class="st0" points="306,654 940.4,647.8 963,646 982.5,646 986.7,644 992,645.4 1145.2,645.4 1118.4,557.4 968.2,557.4 
	962.7,555.4 958.9,558.6 913.8,558.6 317.8,592.1 317.8,648.1 306,648.1 "/>
<polygon class="st0" points="317.6,725.4 317.6,654 940.4,647.8 963,646 982.5,646 986.7,644 992,645.4 1145.2,645.4 1149.6,659.7 
	1011,725.4 925.9,742.9 811.6,742.9 "/>
<polygon class="st0" points="1118.7,288.3 1222.7,267.7 1226.9,262.8 1234.2,262.8 1506.9,327.7 1530.7,389.2 1530.7,400.3 
	1258.9,342.1 1252.4,341.7 1246.7,347.7 1228,343.9 1141.6,356.1 1156.2,359.7 1141.3,360.6 "/>
<polygon class="st0" points="1166,441 1141.3,360.6 1156.2,359.7 1141.6,356.1 1228,343.9 1246.7,347.7 1252.4,341.7 1258.9,342.1 
	1530.7,400.3 1530.7,467.2 1288.1,431.7 1280.3,428.1 1273.5,431.1 1255.1,428.6 1170.9,435.7 1187.3,439 "/>
<polygon class="st0" points="1190.1,522 1166,441 1187.3,439 1170.9,435.7 1255.1,428.6 1273.5,431.1 1280.3,428.1 1288.1,431.7 
	1530.7,467.2 1542.8,468.9 1542.8,537.3 1419.6,524 1418.4,520.1 1315.9,516.9 1307.6,513.3 1302.5,514.5 1282.1,513 1192,518.6 
	1207.7,521.3 "/>
<polygon class="st0" points="1216,619.2 1190.1,522 1207.7,521.3 1192,518.6 1282.1,513 1302.5,514.5 1307.6,513.3 1315.9,516.9 
	1418.4,520.1 1419.6,524 1542.8,537.3 1569.8,540.1 1569.8,616.1 1354.4,606.8 "/>
</svg>
