<svg xmlns="http://www.w3.org/2000/svg" width="52.357" height="13.159" viewBox="0 0 52.357 13.159">
  <g id="g1527" transform="translate(-78.878 -84.219)">
    <path id="path888" d="M78.878,84.719H82.6V97.482H78.878Z" transform="translate(0 -0.303)" fill="#1a1a1a"/>
    <path id="path890" d="M97.965,84.719l3.7,5.744V84.719Zm-.027,6.84v5.923h3.726v-.137Z" transform="translate(-11.517 -0.303)" fill="#e81747"/>
    <path id="path892" d="M120.576,97.378a14.467,14.467,0,0,1-2.457-.2,8.046,8.046,0,0,1-1.942-.595V93.513a10.783,10.783,0,0,0,2,.674,8.827,8.827,0,0,0,2.021.258,4.608,4.608,0,0,0,1.526-.178.826.826,0,0,0,.238-1.328,1.626,1.626,0,0,0-.654-.4q-.436-.178-1.387-.476a4.719,4.719,0,0,1-.476-.139,8.5,8.5,0,0,1-2.061-.912,3.045,3.045,0,0,1-1.07-1.189A4.342,4.342,0,0,1,116,88.063a3.294,3.294,0,0,1,1.348-2.854,6.644,6.644,0,0,1,3.964-.991,13.375,13.375,0,0,1,2.121.178,11.246,11.246,0,0,1,1.863.4v3.092a9.142,9.142,0,0,0-3.389-.694,5.952,5.952,0,0,0-1.585.159.665.665,0,0,0-.515.694.687.687,0,0,0,.218.535,1.984,1.984,0,0,0,.654.357q.456.139,1.526.416a7.225,7.225,0,0,1,2.339,1.011,3.1,3.1,0,0,1,1.149,1.328,4.693,4.693,0,0,1,.317,1.823,3.37,3.37,0,0,1-1.387,2.834,6.658,6.658,0,0,1-4.043,1.031Z" transform="translate(-22.429 0)" fill="#1a1a1a"/>
    <path id="path894" d="M144.775,84.719H148.5V97.482h-3.726Z" transform="translate(-39.817 -0.303)" fill="#1a1a1a"/>
    <path id="path896" d="M160.248,87.494H156.66V84.719h10.9v2.775h-3.587v9.988h-3.726Z" transform="translate(-46.999 -0.303)" fill="#1a1a1a"/>
    <path id="path898" d="M186.734,84.719H196.4v2.854h-5.945v2.081h5.212v2.893h-5.212v2.081H196.4v2.854h-9.671Z" transform="translate(-65.17 -0.303)" fill="#1a1a1a"/>
  </g>
</svg>
