<svg xmlns="http://www.w3.org/2000/svg" width="14.114" height="14.111" viewBox="0 0 14.114 14.111">
  <path id="Icon_ionic-ios-globe" data-name="Icon ionic-ios-globe" d="M10.43,3.375h-.024a7.055,7.055,0,0,0,0,14.111h.024a7.055,7.055,0,1,0,0-14.111Zm6.112,6.581H13.911a13.358,13.358,0,0,0-.332-2.585,10.333,10.333,0,0,0,1.686-.712A6.077,6.077,0,0,1,16.543,9.956Zm-6.587,0h-2.1a12.057,12.057,0,0,1,.3-2.344,10.32,10.32,0,0,0,1.8.241Zm0,.95V13a10.364,10.364,0,0,0-1.8.241,12.055,12.055,0,0,1-.3-2.341Zm.95,0h2.079a11.986,11.986,0,0,1-.3,2.337A10.125,10.125,0,0,0,10.905,13Zm0-.95v-2.1a10.364,10.364,0,0,0,1.781-.237,12.021,12.021,0,0,1,.3,2.341Zm3.711-4a9.423,9.423,0,0,1-1.289.526,7,7,0,0,0-.9-1.849A6.138,6.138,0,0,1,14.616,5.956Zm-2.184.77a9.546,9.546,0,0,1-1.526.2V4.44A4.11,4.11,0,0,1,12.432,6.726Zm-2.476-2.3v2.5A9.382,9.382,0,0,1,8.412,6.72,4.108,4.108,0,0,1,9.956,4.427Zm-1.547.217a7.059,7.059,0,0,0-.892,1.835,9.635,9.635,0,0,1-1.272-.522A6.046,6.046,0,0,1,8.409,4.644ZM5.6,6.662a10.129,10.129,0,0,0,1.669.706,12.82,12.82,0,0,0-.332,2.585H4.321A6.046,6.046,0,0,1,5.6,6.662ZM4.318,10.905H6.93a13.324,13.324,0,0,0,.332,2.585,10.747,10.747,0,0,0-1.669.706A6.078,6.078,0,0,1,4.318,10.905Zm1.923,4a9.493,9.493,0,0,1,1.275-.522,7.084,7.084,0,0,0,.892,1.838A6.2,6.2,0,0,1,6.241,14.9Zm2.171-.767a9.431,9.431,0,0,1,1.543-.207v2.5A4.1,4.1,0,0,1,8.412,14.138Zm2.493,2.283V13.928a9.546,9.546,0,0,1,1.526.2A4.108,4.108,0,0,1,10.905,16.421Zm1.526-.193a7,7,0,0,0,.9-1.849,9.268,9.268,0,0,1,1.289.529A6.209,6.209,0,0,1,12.432,16.227ZM15.264,14.2a10.333,10.333,0,0,0-1.686-.712,13.288,13.288,0,0,0,.332-2.581h2.632A6.05,6.05,0,0,1,15.264,14.2Z" transform="translate(-3.375 -3.375)" fill="#fff"/>
</svg>
