<svg xmlns="http://www.w3.org/2000/svg" width="17.999" height="18.002" viewBox="0 0 17.999 18.002">
  <path id="Icon_awesome-search-plus" data-name="Icon awesome-search-plus" d="M10.688,6.75V7.875a.423.423,0,0,1-.422.422H8.3v1.969a.423.423,0,0,1-.422.422H6.75a.423.423,0,0,1-.422-.422V8.3H4.359a.423.423,0,0,1-.422-.422V6.75a.423.423,0,0,1,.422-.422H6.328V4.359a.423.423,0,0,1,.422-.422H7.875a.423.423,0,0,1,.422.422V6.328h1.969A.423.423,0,0,1,10.688,6.75Zm7.066,10.009-.995.995a.84.84,0,0,1-1.192,0l-3.509-3.505a.843.843,0,0,1-.246-.6v-.573a7.309,7.309,0,1,1,1.266-1.266h.573a.843.843,0,0,1,.6.246l3.505,3.505A.851.851,0,0,1,17.754,16.759Zm-5.66-9.447a4.781,4.781,0,1,0-4.781,4.781A4.777,4.777,0,0,0,12.094,7.313Z" fill="#fff"/>
</svg>
