<?xml version="1.0" encoding="utf-8"?>
<!-- Generator: Adobe Illustrator 23.0.3, SVG Export Plug-In . SVG Version: 6.00 Build 0)  -->
<svg version="1.1" id="Layer_1" xmlns="http://www.w3.org/2000/svg" xmlns:xlink="http://www.w3.org/1999/xlink" x="0px" y="0px"
	 viewBox="0 0 1750 450" style="enable-background:new 0 0 1750 450;" xml:space="preserve">
<style type="text/css">
	.st0{fill:#1B1B1B;stroke:#000000;stroke-miterlimit:10;}
</style>
<image style="overflow:visible;" width="1709" height="397" xlink:href="Floor A2.png"  transform="matrix(1 0 0 1 20.5 26.5)">
</image>
<polygon class="st0" points="81.1,371.8 110.4,371.8 110.4,409.3 230.9,409.3 230.9,364.9 244.4,364.9 244.4,96.7 218.7,96.7 
	218.7,104.2 218.7,108.5 190.5,122.7 185.3,109.9 185.3,96.7 97.5,96.7 97.5,87.6 81.1,87.6 81.1,221.1 75.8,221.1 75.8,227.8 
	84.7,227.8 84.7,296.9 75.8,296.9 75.8,304 81.4,304 "/>
<polygon class="st0" points="230.9,409.3 230.9,364.9 244.4,364.9 244.4,99.8 270.4,99.8 270.4,104.8 298.2,120.5 302.7,108.1 
	302.7,99.8 394.4,99.8 394.4,409.3 "/>
<polygon class="st0" points="394.4,99.8 487,99.8 487,108.4 490.2,120.8 520.7,105.4 520.7,99.8 545,99.8 545,409.3 394.4,409.3 "/>
<polygon class="st0" points="696.2,99.8 788.8,99.8 788.8,108.4 792,120.8 822.5,105.4 822.5,99.8 846.8,99.8 846.8,409.3 
	696.2,409.3 "/>
<polygon class="st0" points="998,99.8 1090.6,99.8 1090.6,108.4 1093.8,120.8 1124.4,105.4 1124.4,99.8 1148.6,99.8 1148.6,409.3 
	998,409.3 "/>
<polygon class="st0" points="1299.8,99.8 1392.4,99.8 1392.4,108.4 1395.6,120.8 1426.2,105.4 1426.2,99.8 1456,99.8 1456,369.1 
	1451.5,369.1 1451.5,409.3 1299.8,409.3 "/>
<polygon class="st0" points="545,99.8 571.6,99.8 571.6,105.6 600,121.3 604.7,108.4 604.7,99.8 696.2,99.8 696.2,409.3 545,409.3 
	"/>
<polygon class="st0" points="846.8,99.8 873.4,99.8 873.4,105.6 901.8,121.3 906.5,108.4 906.5,99.8 998,99.8 998,409.3 
	846.8,409.3 "/>
<polygon class="st0" points="1148.6,99.8 1175.2,99.8 1175.2,105.6 1203.6,121.3 1208.3,108.4 1208.3,99.8 1299.8,99.8 
	1299.8,409.3 1148.6,409.3 "/>
<polygon class="st0" points="1451.5,409.3 1451.5,369.1 1456,369.1 1456,135.3 1478.7,135.3 1478.7,140.7 1506.4,155.1 
	1510.7,147.6 1510.7,135.3 1714.7,135.3 1714.7,370.9 1639.6,370.9 1639.6,409.3 "/>
</svg>
