<?xml version="1.0" encoding="utf-8"?>
<!-- Generator: Adobe Illustrator 23.0.3, SVG Export Plug-In . SVG Version: 6.00 Build 0)  -->
<svg version="1.1" id="Layer_1" xmlns="http://www.w3.org/2000/svg" xmlns:xlink="http://www.w3.org/1999/xlink" x="0px" y="0px"
	 viewBox="0 0 1750 450" style="enable-background:new 0 0 1750 450;" xml:space="preserve">
<style type="text/css">
	.st0{fill:#1B1B1B;stroke:#000000;stroke-miterlimit:10;}
</style>
<image style="overflow:visible;" width="1716" height="408" xlink:href="floor A3.png"  transform="matrix(1 0 0 1 17 18)">
</image>
<polygon class="st0" points="27.4,362 27.4,298.6 21.5,298.6 21.5,292.7 31,292.7 31,155.5 21.5,155.5 21.5,149 27.9,149 27.9,23 
	203.4,23 203.4,61.3 196.6,61.3 181.8,85.3 203.4,89.1 203.4,97.1 196.6,97.1 196.6,354.4 181.8,354.4 181.8,399.3 57.8,399.3 
	58,362.4 "/>
<polygon class="st0" points="181.8,399.3 181.8,354.4 196.6,354.4 196.6,97.1 203.4,97.1 203.4,89.1 222,89.1 222,95.7 224.9,95.7 
	252.4,111 256.9,98.1 256.9,89.1 350.7,89.1 350.7,399.3 "/>
<polygon class="st0" points="350.7,399.3 350.7,89.1 446.7,89.1 446.7,99.8 450.2,110.4 480.9,96.2 480.9,89.1 507.1,89.1 
	507.1,399.3 "/>
<polygon class="st0" points="662.7,399.3 662.7,89.1 758.7,89.1 758.7,99.8 762.2,110.4 792.9,96.2 792.9,89.1 819.1,89.1 
	819.1,399.3 "/>
<polygon class="st0" points="974.7,399.3 974.7,89.1 1070.7,89.1 1070.7,99.8 1074.2,110.4 1104.9,96.2 1104.9,89.1 1131.1,89.1 
	1131.1,399.3 "/>
<polygon class="st0" points="1286.7,399.3 1286.7,89.1 1382.7,89.1 1382.7,99.8 1386.2,110.4 1416.9,96.2 1416.9,89.1 1443.1,89.1 
	1443.1,399.3 "/>
<polygon class="st0" points="507.1,89.1 534.2,89.1 534.2,95.8 563.1,110.4 568.4,99.8 568.4,89.1 662.7,89.1 662.7,399.3 
	507.1,399.3 "/>
<polygon class="st0" points="819.1,89.1 846.2,89.1 846.2,95.8 875.1,110.4 880.4,99.8 880.4,89.1 974.7,89.1 974.7,399.3 
	819.1,399.3 "/>
<polygon class="st0" points="1131.1,89.1 1158.2,89.1 1158.2,95.8 1187.1,110.4 1192.4,99.8 1192.4,89.1 1286.7,89.1 1286.7,399.3 
	1131.1,399.3 "/>
<polygon class="st0" points="1443.1,399.3 1443.1,125.9 1472.1,125.9 1472.1,131.2 1501.2,144.8 1506.5,132.4 1506.5,125.9 
	1679,125.9 1679,362.3 1638.7,362.3 1638.7,399.3 "/>
</svg>
