<?xml version="1.0" encoding="utf-8"?>
<!-- Generator: Adobe Illustrator 23.0.3, SVG Export Plug-In . SVG Version: 6.00 Build 0)  -->
<svg version="1.1" id="Layer_1" xmlns="http://www.w3.org/2000/svg" xmlns:xlink="http://www.w3.org/1999/xlink" x="0px" y="0px"
	 viewBox="0 0 1750 450" style="enable-background:new 0 0 1750 450;" xml:space="preserve">
<style type="text/css">
	.st0{fill:#1B1B1B;stroke:#000000;stroke-miterlimit:10;}
</style>
<image style="overflow:visible;" width="1710" height="423" xlink:href="floor A4.png"  transform="matrix(1 0 0 1 20 13.5)">
</image>
<path class="st0" d="M485.8,374V18h49.3v6.2h84.4V18H700v7.6h80c0,0-2.2-7.6,0-7.6s43.6,0,43.6,0v32.4h-6.2l-19.1,32l12.9,4.9h6.2
	v321.8H652.9v-38.2h-24.7v-5.6H518.7v6.2h-19.1v2.4H485.8z"/>

	
<polygon class="st0" points="817.3,409.1 817.3,87.3 847.6,87.3 847.6,93.1 878.2,110 882.4,97.1 882.4,87.3 981.3,87.3 
	981.3,409.1 "/>

	
<polygon class="st0" points="981.3,409.1 981.3,87.3 1084.6,87.3 1084.6,98.6 1087.6,111 1118.4,95 1118.4,87.3 1145.6,87.3 
	1145.6,409.1 "/>

	
<polygon class="st0" points="1309.2,409.1 1309.2,87.3 1412.4,87.3 1412.4,98.6 1415.4,111 1446.2,95 1446.2,87.3 1478.4,87.3 
	1478.4,364 1473.5,364.2 1473.5,409.1 "/>

	
<polygon class="st0" points="1145.6,409.1 1145.6,87.3 1174.7,87.3 1174.7,93.3 1205.5,109.3 1210.8,97.4 1210.8,87.3 1309.2,87.3 
	1309.2,409.1 "/>

	
<polygon class="st0" points="1473.5,409.1 1473.5,364.2 1478.4,364.2 1478.4,125.3 1503,125.3 1503,130 1533.8,145.4 1537.9,132.4 
	1537.9,125.3 1679,125.3 1679,371.8 1636.9,371.8 1636.9,409.1 "/>

	
</svg>
