<?xml version="1.0" encoding="utf-8"?>
<!-- Generator: Adobe Illustrator 23.0.3, SVG Export Plug-In . SVG Version: 6.00 Build 0)  -->
<svg version="1.1" id="Layer_1" xmlns="http://www.w3.org/2000/svg" xmlns:xlink="http://www.w3.org/1999/xlink" x="0px" y="0px"
	 viewBox="0 0 1750 600" style="enable-background:new 0 0 1750 600;" xml:space="preserve">
<style type="text/css">
	.st0{fill:#0D0D0D;stroke:#000000;stroke-miterlimit:10;}
</style>
<image style="overflow:visible;" width="1710" height="568" xlink:href="Floor B2.png"  transform="matrix(1 0 0 1 20 16)">
</image>
<polygon class="st0" points="1237.2,149.9 1348,149.9 1348,21.3 1604,21.3 1604,282.3 1237.2,282.3 1237.2,264 1241,264 
	1252.3,239.7 1243.7,236.1 1237.2,236.1 "/>
<polygon class="st0" points="1237.2,282.3 1604,282.3 1604,409.4 1237.2,409.4 1237.2,329.4 1240.9,329.4 1250.7,324.6 1239.6,300 
	1237.2,300 "/>
<polygon class="st0" points="1237.2,409.4 1604,409.4 1604,533 1595.6,533 1595.6,564.1 1484.9,564.1 1484.9,546.8 1426.7,546.8 
	1426.7,537.4 1237.2,537.4 1237.2,513.4 1242.7,513.4 1251.1,511.2 1240,486.8 1237.2,486.8 "/>
</svg>
