<?xml version="1.0" encoding="utf-8"?>
<!-- Generator: Adobe Illustrator 23.0.3, SVG Export Plug-In . SVG Version: 6.00 Build 0)  -->
<svg version="1.1" id="Layer_1" xmlns="http://www.w3.org/2000/svg" xmlns:xlink="http://www.w3.org/1999/xlink" x="0px" y="0px"
	 viewBox="0 0 700 600" style="enable-background:new 0 0 700 600;" xml:space="preserve">
<style type="text/css">
	.st0{fill:#050606;stroke:#000000;stroke-miterlimit:10;}
</style>
<image style="overflow:visible;" width="693" height="589" xlink:href="Floor B3.png"  transform="matrix(1 0 0 1 3.5 5.5)">
</image>
<polygon class="st0" points="39.5,9.6 303.9,9.6 303.9,228.6 300,228.6 290,232.3 302,255.8 305.5,255.8 305.5,274.3 42.9,274.3 
	42.9,278.6 7.6,278.6 7.6,149.3 40.2,149.3 "/>
<polygon class="st0" points="7.6,278.6 42.9,278.6 42.9,274.3 305.5,274.3 305.5,293.9 301.7,293.9 288.8,316.8 303.7,320.6 
	305.5,320.6 305.5,400.8 42.6,400.8 42.6,404.1 7.6,404.1 "/>
<polygon class="st0" points="7.6,404.1 42.6,404.1 42.6,400.8 305.5,400.8 305.5,476.2 300.5,476.2 289.4,479.1 302.6,504.5 
	305.5,504.5 305.5,530.6 38.7,530.6 38.7,519.4 7.6,519.4 "/>
<polygon class="st0" points="303.9,9.6 567,9.6 567,274.3 353.7,274.3 353.7,210.6 346.3,210.6 346.3,204.4 343.6,192.6 
	320.5,204.1 320.5,210 303.9,210 "/>
<polygon class="st0" points="353.7,274.3 567,274.3 567,540.4 537.1,540.4 537.1,565.3 419.1,565.3 419.1,527.1 353.7,527.1 
	353.7,405.9 362.6,405.9 369.4,399 358.4,378.6 353.7,378.6 "/>
</svg>
