<?xml version="1.0" encoding="utf-8"?>
<!-- Generator: Adobe Illustrator 23.0.3, SVG Export Plug-In . SVG Version: 6.00 Build 0)  -->
<svg version="1.1" id="Layer_1" xmlns="http://www.w3.org/2000/svg" xmlns:xlink="http://www.w3.org/1999/xlink" x="0px" y="0px"
	 viewBox="0 0 700 600" style="enable-background:new 0 0 700 600;" xml:space="preserve">
<style type="text/css">
	.st0{fill:#050606;stroke:#000000;stroke-miterlimit:10;}
</style>
<image style="overflow:visible;" width="661" height="551" xlink:href="floor B4.png"  transform="matrix(1 0 0 1 19.5 24.5)">
</image>
<polygon class="st0" points="23.6,40.9 54.4,40.9 54.4,28.4 317.2,28.4 317.2,159.2 298.1,159.2 298.1,154.1 271.7,140.6 
	267.4,153.9 267.4,157 56.5,157 56.5,176.4 23.6,176.4 "/>
<polygon class="st0" points="23.6,176.4 56.5,176.4 56.5,157 267.4,157 267.4,236.6 264.8,236.6 253,261.2 261.7,264.6 267.4,264.6 
	267.4,280.1 57.2,280.1 57.2,282.8 23.6,282.8 "/>
<polygon class="st0" points="23.6,282.8 57.2,282.8 57.2,280.1 267.4,280.1 267.4,294.8 262.8,294.8 251.2,318.3 262.3,322.3 
	267.4,322.3 267.4,400.1 57.2,400.1 57.2,404.3 23.6,404.3 "/>
<polygon class="st0" points="23.6,404.3 57.2,404.3 57.2,400.1 267.4,400.1 267.4,478.3 262.3,478.3 251.4,482.1 263.2,506.6 
	267.4,506.6 267.4,516.6 53.7,516.6 53.7,511.2 23.6,511.2 "/>
<polygon class="st0" points="317.2,28.4 522.1,28.4 522.1,271.2 491,271.2 491,280.1 315.4,280.1 315.4,189 317.2,189 330.6,184.8 
	319.6,159.7 317.2,159.7 "/>
<polygon class="st0" points="315.4,280.1 491,280.1 491,301.6 521.4,301.6 521.4,532.5 493.4,532.5 493.4,561.4 386.6,561.4 
	386.6,532.4 372.4,532.4 372.3,517.7 315.4,517.7 315.4,404.3 318.7,404.3 330.3,401.7 320.5,378.9 315.4,378.9 "/>
</svg>
