<svg xmlns="http://www.w3.org/2000/svg" width="16.259" height="18.65" viewBox="0 0 16.259 18.65">
  <g id="noun-date-1195535" transform="translate(-103.356 -22.25)">
    <path id="Path_2825" data-name="Path 2825" d="M139.128,23.741h-.861V22.25h-1.621v1.491h-6.483V22.25h-1.621v1.491h-.81a2.434,2.434,0,0,0-2.431,2.431v12.3a2.434,2.434,0,0,0,2.431,2.431h11.4a2.434,2.434,0,0,0,2.431-2.431v-12.3a2.434,2.434,0,0,0-2.431-2.431Zm.81,14.729a.811.811,0,0,1-.608.81h-11.4c-.65,0-1.013-.364-1.013-.81V28.542h13.017Zm-5.489-5.78H128.9v4.569h5.545Z" transform="translate(-21.944)" fill="#798395"/>
  </g>
</svg>
