<svg xmlns="http://www.w3.org/2000/svg" width="16.5" height="20.999" viewBox="0 0 16.5 20.999">
  <path id="noun-document-4221718" d="M167.171,56a1.124,1.124,0,0,1-.295-.759V51.125a2.246,2.246,0,0,1,2.247-2.247h4.128a1.126,1.126,0,0,1,.75.286V36.876A1.872,1.872,0,0,0,172.129,35H159.373a1.871,1.871,0,0,0-1.872,1.872V54.131A1.871,1.871,0,0,0,159.373,56Zm6.61-5.469a.75.75,0,0,0-.53-1.281h-4.128a1.872,1.872,0,0,0-1.872,1.872v4.119a.75.75,0,0,0,1.28.531l5.25-5.241Zm-12.53-2.9h9a.75.75,0,0,0,0-1.5h-9a.75.75,0,1,0,0,1.5Zm0-4.125h9a.75.75,0,0,0,0-1.5h-9a.75.75,0,1,0,0,1.5Zm0-3.937h9a.75.75,0,0,0,0-1.5h-9a.75.75,0,1,0,0,1.5Z" transform="translate(-157.501 -35.004)" fill="#798395" fill-rule="evenodd"/>
</svg>
