<svg xmlns="http://www.w3.org/2000/svg" width="21.65" height="21" viewBox="0 0 21.65 21">
  <g id="noun-send-887299" transform="translate(-61.343 0.016)">
    <path id="Path_2829" data-name="Path 2829" d="M61.936,10.618c-.82.43-.786,1.06.074,1.4l2.547,1.008a3.263,3.263,0,0,0,2.891-.414L78.507,3.891c.727-.572.8-.487.174.189l-8.743,9.358a1.057,1.057,0,0,0,.417,1.835l.3.116c.863.334,2.27.894,3.127,1.243l2.824,1.15a1.46,1.46,0,0,0,2.019-.955L82.929,1C83.172.11,82.7-.269,81.88.161Z" transform="translate(0)" fill="#fff"/>
    <path id="Path_2830" data-name="Path 2830" d="M215.064,416.937c-.05.151,1.742-2.595,1.742-2.595a1.341,1.341,0,0,0-.637-2.047l-1.954-.8c-.856-.35-1.266.061-.912.916,0,0,1.813,4.371,1.762,4.526Z" transform="translate(-146.139 -395.959)" fill="#fff"/>
  </g>
</svg>
