<svg xmlns="http://www.w3.org/2000/svg" width="23.72" height="15.816" viewBox="0 0 23.72 15.816">
  <g id="noun-share-1841925" transform="translate(-98.066 -112.012)">
    <path id="Path_2828" data-name="Path 2828" d="M112.661,112.018a.791.791,0,0,1,.387.165l8.436,6.591h0a.791.791,0,0,1,0,1.244l-8.436,6.59h0a.791.791,0,0,1-1.277-.618v-2.628c-1.783.017-7.916.356-12.4,4.276a.791.791,0,0,1-1.269-.84c2.215-6.824,8.871-9.844,13.667-11.154v-2.834a.791.791,0,0,1,.89-.791Zm.692,2.406v1.812a.791.791,0,0,1-.593.766c-3.875.981-9.127,3.177-11.9,7.645a23.133,23.133,0,0,1,11.74-2.875h0a.791.791,0,0,1,.75.791v1.8l6.36-4.967Z" transform="translate(0 0)" fill="#798395"/>
  </g>
</svg>
