<svg xmlns="http://www.w3.org/2000/svg" width="17.487" height="20.999" viewBox="0 0 17.487 20.999">
  <g id="noun-stopwatch-1560850" transform="translate(-125.993 -11.196)">
    <path id="Path_2826" data-name="Path 2826" d="M143.222,15.823a.874.874,0,0,0-1.237,0l-1.261,1.261a8.705,8.705,0,0,0-5.114-2.347V12.944h1.749a.874.874,0,0,0,0-1.748h-5.245a.874.874,0,0,0,0,1.748h1.749v1.792a8.7,8.7,0,0,0-5.114,2.347l-1.261-1.261h0a.875.875,0,1,0-1.237,1.237l1.346,1.348a8.742,8.742,0,1,0,14.281,0l1.346-1.346a.874.874,0,0,0,0-1.239Zm-8.487,14.606a6.993,6.993,0,1,1,3.5-.937,6.993,6.993,0,0,1-3.5.937Z" transform="translate(0 0)" fill="#798395"/>
    <path id="Path_2827" data-name="Path 2827" d="M331.972,194.772h-2.623v-3.5a.874.874,0,1,0-1.748,0v4.371a.874.874,0,0,0,.874.874h3.5a.874.874,0,0,0,0-1.748Z" transform="translate(-193.74 -172.211)" fill="#798395"/>
  </g>
</svg>
