<svg xmlns="http://www.w3.org/2000/svg" width="14.804" height="19.738" viewBox="0 0 14.804 19.738">
  <path id="Icon_awesome-file-upload" data-name="Icon awesome-file-upload" d="M8.635,5.243V0H.925A.923.923,0,0,0,0,.925V18.813a.923.923,0,0,0,.925.925H13.878a.923.923,0,0,0,.925-.925V6.168H9.561A.928.928,0,0,1,8.635,5.243Zm2.513,8.327H8.635v3.084a.617.617,0,0,1-.617.617H6.785a.617.617,0,0,1-.617-.617V13.57H3.655a.617.617,0,0,1-.434-1.055L6.938,8.826a.657.657,0,0,1,.927,0l3.717,3.689A.617.617,0,0,1,11.148,13.57Zm3.386-9.523L10.76.27A.925.925,0,0,0,10.1,0H9.869V4.935H14.8V4.7A.922.922,0,0,0,14.534,4.048Z" fill="#fff"/>
</svg>
